PathFileType	4	(X/Y/Z)	C:\Data\4407\4407cd02.trc
DataRate	CameraRate	NumFrames	NumMarkers	Units	OrigDataRate	OrigDataStartFrame	OrigNumFrames
200.00	200.00	      11	29	mm	200.00	251	      2000
Frame#	Time	Offset			RShoulder			RUpperArm			RElbow			RForearm			RWrist			LShoulder			LUpperArm			LElbow			LForearm			LWrist			LPSIS			RPSIS			RASIS			RThigh			RKnee			RShank			RAnkle			RHeel			RLat5			RToe			LASIS			LThigh			LKnee			LShank			LAnkle			LHeel			LLat5			LToe			
		X1	Y1	Z1	X2	Y2	Z2	X3	Y3	Z3	X4	Y4	Z4	X5	Y5	Z5	X6	Y6	Z6	X7	Y7	Z7	X8	Y8	Z8	X9	Y9	Z9	X10	Y10	Z10	X11	Y11	Z11	X12	Y12	Z12	X13	Y13	Z13	X14	Y14	Z14	X15	Y15	Z15	X16	Y16	Z16	X17	Y17	Z17	X18	Y18	Z18	X19	Y19	Z19	X20	Y20	Z20	X21	Y21	Z21	X22	Y22	Z22	X23	Y23	Z23	X24	Y24	Z24	X25	Y25	Z25	X26	Y26	Z26	X27	Y27	Z27	X28	Y28	Z28	X29	Y29	Z29	

251	1.250	361.10098	-242.15240	1375.02722	462.63870	-100.54499	1492.74060	546.18707	-197.11180	1329.32434	637.78455	-164.97586	1203.40063	677.99475	-130.09674	1046.29578	747.85461	-16.17597	1012.54095	119.53768	-127.70094	1487.37805	62.41864	-219.20872	1279.60828	-32.04193	-195.40240	1195.98474	-91.45603	-150.05319	1054.19995	-171.84926	-27.96791	1006.33234	259.94168	-264.45749	991.81226	309.15195	-269.20862	996.91437	428.12732	-66.38094	992.00024	366.44812	-103.46878	668.26172	413.53052	-249.07680	501.63455	367.60361	-251.12276	422.25461	353.54883	-463.25851	140.18307	306.92175	-530.96063	131.18575	393.60248	-351.20438	57.94054	287.19446	-338.50363	51.58760	176.93790	-44.90780	975.55127	207.40002	55.69606	682.87335	158.58545	51.46542	520.86816	201.83157	103.04982	466.93018	182.40967	164.21544	117.58855	235.31535	126.23997	67.50435	153.11594	322.37903	136.72157	263.47293	330.51126	136.06837	
252	1.255	360.57791	-241.78329	1374.15906	462.11508	-100.41363	1492.36914	545.58948	-196.98172	1329.09143	637.45215	-165.02538	1203.28247	677.79529	-130.10081	1046.16260	747.81555	-16.25426	1012.58820	119.71271	-127.89418	1487.04321	62.36420	-219.12343	1279.35791	-32.11336	-195.91772	1195.67200	-91.58272	-150.21829	1054.02795	-171.82866	-27.97304	1006.33521	259.52438	-263.67715	991.20758	308.66360	-268.44595	996.18030	427.60922	-65.63182	991.36560	366.42743	-103.12736	667.51447	414.25754	-249.16577	501.04837	368.13519	-251.97511	421.47375	354.25394	-468.34512	142.08968	307.63043	-536.18597	134.24026	393.71439	-357.70486	58.08617	287.41718	-345.03244	51.72277	176.58049	-44.02872	975.18213	207.99413	57.65187	683.52350	159.66180	53.15645	520.83124	202.27692	103.71328	465.78012	184.23589	160.79410	114.98255	235.93636	123.31542	64.79525	155.72836	319.19638	132.97079	266.17972	326.61273	131.90663	
253	1.260	360.09421	-241.22392	1373.52515	461.56757	-100.26311	1491.96228	544.95947	-196.94615	1328.90234	636.99072	-165.07034	1203.06873	677.58337	-130.11842	1046.05859	747.67487	-16.23351	1012.57458	118.91755	-127.04154	1486.98730	62.31261	-219.11824	1279.16663	-32.18823	-196.43074	1195.44482	-91.55175	-150.40321	1053.78784	-171.75877	-28.05904	1006.33185	258.56479	-262.93204	989.97931	308.13318	-267.67676	995.70374	427.19409	-64.98958	990.60504	366.41425	-102.51456	666.78406	414.65753	-248.74324	500.17743	368.53146	-252.72606	420.46738	355.12921	-473.06467	143.90874	308.45584	-541.10388	137.46182	393.97403	-364.52158	58.01942	287.43149	-351.72461	51.91805	176.12471	-43.07328	974.68219	208.64911	59.23229	684.04169	160.69604	54.86621	520.66052	203.64912	105.42703	463.79288	187.48111	158.67160	113.02693	237.05717	118.07246	63.07848	157.83797	315.01962	128.94025	268.67303	321.82312	127.35094	
254	1.265	359.56213	-240.73904	1372.76721	460.94586	-100.11418	1491.53882	544.37054	-196.77994	1328.71008	636.63153	-165.04491	1202.98621	677.37958	-130.15390	1045.96130	747.54022	-16.28750	1012.57208	118.58830	-126.81664	1486.82629	62.18929	-219.16376	1278.93298	-32.28297	-196.74911	1195.22412	-91.48564	-150.51872	1053.58887	-171.71591	-28.14678	1006.35718	258.19247	-261.98187	989.55811	307.78018	-266.62500	995.13745	426.69937	-64.18421	989.80579	366.62332	-101.67106	666.18500	415.41678	-248.31915	499.46738	368.94836	-253.48445	419.55515	356.07477	-477.86362	146.03017	309.14850	-546.23877	140.94916	394.28189	-371.12823	57.82616	287.78940	-358.38150	51.89619	175.54657	-42.15200	974.16046	209.19344	61.14063	684.65955	161.89000	56.16406	520.20074	204.56877	105.56429	462.09390	188.86044	154.00212	111.97867	237.27827	112.00282	63.26154	160.32774	310.71808	124.68496	272.00446	316.03064	122.33157	
255	1.270	359.10333	-240.35130	1371.92542	460.31854	-99.96869	1491.16980	543.76929	-196.39240	1328.13477	636.25836	-165.03786	1202.83215	677.21478	-130.07512	1045.93982	747.53998	-16.30983	1012.56238	118.26851	-126.53080	1486.66162	62.08131	-219.15323	1278.89063	-32.28369	-197.13202	1195.03540	-91.42003	-150.59244	1053.30066	-171.71092	-28.23030	1006.30023	257.63318	-260.90826	989.08856	307.19998	-265.67032	994.77203	425.99036	-63.28762	989.36310	366.59665	-101.21071	665.33417	416.16580	-247.94409	498.73508	369.59372	-253.96461	418.50412	356.92303	-482.56235	148.40700	309.94818	-550.82019	144.46532	394.63925	-377.76318	57.94657	287.71069	-365.06091	52.22786	175.04279	-41.10133	973.75275	209.85936	62.53579	685.02393	163.06018	57.58774	519.68781	205.43340	106.05431	460.39236	190.40495	149.25049	110.93011	238.19212	106.33079	62.46216	162.91211	306.81564	121.27406	274.43375	311.38083	116.52420	
256	1.275	358.46436	-239.98492	1371.35413	459.64832	-99.74458	1490.80664	543.19885	-196.42393	1328.23608	635.90887	-164.95335	1202.72485	676.94647	-130.16248	1045.80701	747.49207	-16.28343	1012.45374	117.94836	-126.14441	1486.54883	61.88636	-219.23668	1278.77625	-32.31090	-197.56061	1194.80542	-91.35217	-150.71420	1053.05725	-171.68100	-28.28867	1006.31128	257.10370	-259.85577	988.66211	306.60153	-264.60907	994.22223	425.48260	-62.33764	988.64362	366.85526	-100.00978	664.69507	416.94839	-247.11995	497.82147	370.63284	-254.58122	417.51526	357.73001	-486.93600	150.70732	310.55994	-555.20209	148.06499	394.79764	-384.30411	57.90104	287.79053	-371.83173	52.49841	174.46922	-39.65827	973.41211	210.29704	64.23136	685.29706	163.96901	58.40783	518.87488	206.80971	106.21513	458.42053	191.22334	144.41740	109.91785	239.73778	99.85983	63.09443	165.13055	302.52057	117.75763	276.68643	307.27103	111.11062	
257	1.280	357.95422	-239.51408	1370.54077	459.02032	-99.49258	1490.37903	542.47113	-196.00577	1327.81091	635.55591	-164.85666	1202.58276	676.74310	-130.08324	1045.69409	747.37506	-16.34940	1012.38098	117.64606	-125.79640	1486.41040	61.75954	-219.23364	1278.71899	-32.38968	-197.97000	1194.55859	-91.34113	-150.81528	1052.90869	-171.70041	-28.34915	1006.26898	256.46942	-258.72858	988.23749	306.00656	-263.61484	993.74078	425.02740	-61.44566	988.06403	367.21420	-99.08010	663.94153	417.98318	-246.42697	497.14026	371.72580	-254.74608	416.55576	358.49240	-491.31952	153.24091	311.36292	-559.45154	151.88982	395.03964	-391.14377	58.02694	288.00616	-378.42804	52.65627	173.95329	-38.41938	972.96875	210.74409	66.04521	685.48273	165.05127	58.99491	518.15570	208.69211	107.02797	456.42816	192.28856	140.35287	108.89604	240.50195	94.60875	63.30179	167.06952	298.73071	114.04778	278.48074	303.17670	106.09238	
258	1.285	357.36749	-239.03665	1369.84534	458.46994	-99.32642	1490.02258	541.86090	-195.74307	1327.58630	635.20636	-164.65616	1202.51038	676.59021	-129.98006	1045.62109	747.31561	-16.29359	1012.27283	117.29931	-125.51844	1486.28992	61.60208	-219.16266	1278.71582	-32.47065	-198.18739	1194.34583	-91.27411	-150.88524	1052.76990	-171.73840	-28.35364	1006.25165	255.76651	-257.55212	987.71448	305.17197	-262.47122	993.27991	424.39865	-60.43536	987.58118	367.75613	-97.79442	663.19757	419.05319	-245.40726	496.38324	372.79163	-255.19469	415.61078	359.12622	-495.35443	155.71922	312.14075	-563.60168	156.13492	395.42654	-397.69162	57.98057	288.09326	-384.99545	52.89634	173.44960	-37.02620	972.91083	210.96300	67.75793	685.26935	165.72012	59.14676	517.34338	209.86810	106.70054	454.86044	193.86659	137.46527	108.30687	241.49110	90.68304	63.59712	168.81483	295.18848	110.53102	280.25238	298.82291	101.61499	
259	1.290	356.73865	-238.63075	1369.22534	457.90027	-99.04302	1489.67590	541.28992	-195.37086	1327.35669	634.92566	-164.50461	1202.31458	676.41272	-129.84116	1045.36377	747.24939	-16.29798	1012.19189	116.94954	-125.20994	1486.24902	61.45467	-219.15443	1278.67102	-32.58165	-198.46825	1194.13440	-91.14657	-150.97046	1052.56238	-171.78755	-28.37963	1006.25592	254.98228	-256.35263	987.44476	304.46329	-261.51312	992.84552	424.16519	-59.33969	987.18585	368.20520	-96.41803	662.63513	420.25641	-244.41859	495.65994	374.02582	-255.07332	414.81934	359.72314	-499.49985	158.36311	312.54428	-567.32782	160.31734	395.65570	-404.31250	58.04131	288.17514	-391.54105	52.98745	172.98700	-35.51052	972.83252	211.25749	69.51772	685.14880	166.21228	59.22559	516.75458	210.93977	106.43859	453.46732	195.06667	134.50131	107.93170	241.71471	87.97418	63.67150	170.10297	291.78860	107.08330	281.49261	294.86838	96.95140	
260	1.295	356.05423	-238.30325	1368.94495	457.36008	-98.93125	1489.31201	540.78015	-195.27090	1327.06116	634.48315	-164.29176	1202.13477	676.19897	-129.77905	1045.26941	747.29022	-16.35805	1012.09149	116.49583	-124.91447	1486.16663	61.22016	-219.04942	1278.54858	-32.61275	-198.71257	1194.00891	-91.07387	-150.92471	1052.30176	-171.80457	-28.31638	1006.24084	254.19035	-255.31776	987.10156	303.63882	-260.40591	992.41821	423.86377	-58.22532	986.87146	368.99725	-95.13371	661.81104	421.51367	-243.15985	494.80692	375.54401	-254.82629	413.94208	360.50726	-503.23755	160.98943	313.03625	-570.60132	164.80447	395.96713	-410.91653	58.21017	288.07480	-397.90295	53.37951	172.70528	-34.08432	972.92084	211.34091	70.72966	684.81433	166.45738	59.07211	516.12830	211.94292	105.56076	452.84470	195.63329	131.25793	107.59888	242.36043	84.30319	63.88099	171.39523	288.31314	103.35872	281.93466	291.18942	91.70284	
261	1.300	355.13052	-237.94714	1368.68237	456.85641	-98.77145	1488.99951	540.19092	-195.03081	1326.81445	634.12164	-164.12560	1202.05725	676.04712	-129.65155	1045.11621	747.21008	-16.29442	1012.05829	115.96038	-124.56027	1486.14685	61.03778	-218.92194	1278.52490	-32.67443	-199.01793	1193.72729	-91.11053	-150.97467	1052.17896	-171.84340	-28.33254	1006.25128	253.37381	-254.14819	986.75000	302.70663	-259.26492	992.20917	423.57806	-57.18783	986.49451	369.61194	-93.43417	661.08392	423.10477	-241.80284	494.08020	377.13739	-254.76259	412.96204	361.00006	-506.76135	163.56248	313.37793	-573.54535	169.42053	396.20059	-417.32315	58.19163	288.17288	-404.35977	53.52324	172.43182	-32.46833	973.14374	211.28600	71.87897	684.41235	166.17899	58.77331	515.98572	212.91606	105.12624	452.65454	196.10605	127.52984	107.16283	243.76958	77.30222	66.53157	172.19264	284.62064	99.49122	282.65820	287.15311	87.04969	
